<?xml version="1.0" standalone="no"?>
<!DOCTYPE svg PUBLIC "-//W3C//DTD SVG 20010904//EN"
 "http://www.w3.org/TR/2001/REC-SVG-20010904/DTD/svg10.dtd">
<svg version="1.0" xmlns="http://www.w3.org/2000/svg"
 width="700.000000pt" height="700.000000pt" viewBox="0 0 700.000000 700.000000"
 preserveAspectRatio="xMidYMid meet">
<metadata>
Created by potrace 1.14, written by Peter Selinger 2001-2017
</metadata>
<g transform="translate(0.000000,700.000000) scale(0.100000,-0.100000)"
fill="#000000" stroke="none">
<path d="M3278 6996 c-1 -2 -42 -6 -89 -10 -47 -4 -95 -8 -105 -10 -10 -2 -48
-7 -84 -12 -36 -4 -67 -8 -70 -9 -3 -1 -25 -5 -50 -9 -380 -67 -825 -232
-1155 -429 -89 -54 -272 -173 -285 -187 -3 -3 -43 -34 -90 -70 -47 -35 -98
-76 -114 -90 -504 -437 -854 -957 -1060 -1572 -31 -94 -79 -267 -91 -329 -3
-13 -14 -69 -25 -124 -42 -211 -55 -370 -55 -650 0 -194 7 -329 20 -406 2 -13
6 -46 9 -74 47 -409 239 -953 466 -1318 30 -48 60 -95 65 -105 24 -42 133
-191 208 -285 200 -248 433 -468 692 -653 61 -44 120 -84 130 -91 165 -100
214 -128 295 -171 233 -123 589 -253 845 -308 74 -16 211 -41 274 -50 25 -3
57 -8 71 -10 163 -25 682 -25 842 1 13 2 46 7 73 10 71 10 87 13 115 18 14 3
43 8 65 12 22 4 76 16 120 27 44 10 87 21 96 23 35 8 168 48 239 72 558 189
1087 540 1480 982 36 41 70 79 76 85 29 30 185 242 240 326 208 318 371 683
460 1035 31 120 28 107 58 275 43 235 50 325 50 605 1 191 -9 409 -19 425 -2
3 -6 32 -10 64 -3 33 -8 62 -10 65 -1 3 -6 29 -10 57 -19 157 -104 455 -190
675 -177 450 -430 834 -780 1184 -182 182 -191 191 -335 302 -305 234 -614
402 -990 539 -148 53 -438 127 -595 150 -27 4 -52 8 -55 9 -3 1 -39 5 -80 9
-41 4 -88 10 -105 13 -33 5 -531 13 -537 9z m450 -230 c57 -3 113 -8 125 -11
12 -3 45 -7 74 -9 186 -17 511 -99 754 -192 501 -190 992 -543 1334 -958 22
-27 45 -54 50 -60 23 -25 145 -198 205 -291 75 -116 221 -402 270 -525 55
-141 121 -346 135 -418 1 -9 8 -35 13 -57 6 -22 13 -51 16 -65 2 -14 11 -63
20 -110 18 -98 22 -129 31 -225 4 -38 9 -79 12 -90 5 -26 4 -449 -2 -500 -2
-22 -7 -68 -10 -102 -3 -34 -8 -72 -10 -85 -2 -13 -6 -41 -10 -63 -29 -200
-88 -428 -169 -651 -93 -256 -272 -585 -439 -806 -184 -243 -389 -452 -617
-629 -585 -454 -1273 -690 -2010 -691 -150 0 -284 6 -350 17 -14 2 -52 6 -85
10 -33 3 -67 8 -75 10 -8 2 -33 6 -55 10 -97 14 -322 71 -455 115 -432 141
-850 384 -1176 683 -114 104 -246 242 -324 337 -25 30 -47 57 -50 60 -3 3 -35
46 -71 95 -325 451 -539 979 -604 1495 -4 30 -9 66 -10 80 -7 51 -18 257 -18
349 -1 100 12 361 17 370 2 3 6 33 10 66 3 33 8 71 11 85 5 28 22 118 31 165
24 139 113 423 184 591 407 961 1236 1668 2243 1914 65 16 137 32 160 35 23 4
60 10 82 15 22 5 67 12 100 15 33 4 68 9 79 11 10 2 75 6 145 10 69 4 127 7
128 8 4 3 209 -2 311 -8z"/>
<path d="M3318 6545 c-2 -1 -43 -6 -92 -10 -50 -4 -97 -8 -106 -10 -10 -2 -41
-6 -70 -10 -29 -4 -62 -9 -74 -11 -585 -111 -1045 -333 -1500 -724 -133 -114
-338 -343 -460 -514 -109 -153 -249 -398 -308 -541 -9 -22 -26 -61 -37 -88
-64 -150 -136 -402 -170 -597 -37 -205 -46 -312 -46 -540 0 -205 12 -362 39
-505 2 -11 7 -40 11 -65 20 -131 109 -433 165 -565 12 -27 29 -68 38 -90 9
-22 44 -94 78 -160 170 -337 421 -660 703 -905 35 -30 69 -60 75 -65 21 -20
171 -132 232 -172 164 -111 396 -234 569 -303 199 -79 494 -159 680 -185 23
-3 50 -7 61 -9 102 -20 497 -28 654 -13 122 11 140 13 190 21 25 4 59 10 75
12 298 47 681 184 975 349 90 50 302 192 380 255 399 318 705 712 909 1170 64
144 143 372 166 480 2 8 10 44 19 80 8 36 18 81 21 100 3 19 8 42 10 50 2 8 7
40 11 70 4 30 8 66 10 80 12 93 19 230 18 390 -1 224 -7 297 -50 555 -9 56
-64 270 -88 345 -176 548 -498 1031 -931 1400 -454 387 -1048 647 -1610 705
-33 4 -71 9 -85 11 -27 6 -457 14 -462 9z m373 -230 c62 -4 120 -8 129 -10 8
-1 40 -6 70 -10 30 -3 89 -13 130 -22 41 -8 86 -17 100 -19 79 -16 255 -68
360 -107 216 -82 397 -174 590 -302 658 -436 1113 -1161 1226 -1950 23 -165
31 -417 19 -595 -5 -75 -6 -87 -26 -230 -10 -77 -83 -389 -98 -425 -5 -11 -19
-49 -31 -85 -73 -214 -188 -441 -329 -647 -103 -151 -185 -250 -324 -392 -252
-257 -561 -470 -879 -607 -46 -19 -92 -39 -103 -44 -43 -20 -264 -90 -345
-110 -369 -88 -724 -104 -1113 -50 -37 6 -88 15 -115 21 -26 6 -58 13 -72 15
-14 3 -65 16 -115 29 -906 245 -1630 924 -1937 1815 -47 139 -99 344 -114 455
-3 28 -8 59 -10 70 -2 11 -7 47 -10 80 -2 33 -7 83 -10 110 -6 61 -6 360 0
395 2 14 8 61 12 105 4 44 8 87 9 95 13 80 25 149 30 170 3 14 8 36 11 50 42
208 160 519 280 736 372 675 983 1158 1729 1366 61 17 119 32 130 34 11 1 45
8 75 13 88 18 92 18 150 26 30 4 64 9 75 11 11 2 76 7 145 10 69 3 126 7 127
8 3 2 121 -2 234 -9z"/>
<path d="M3453 6085 c-70 -30 -66 62 -65 -1347 0 -1169 1 -1271 17 -1294 31
-48 1046 -1055 1073 -1065 57 -22 135 22 147 82 12 60 2 72 -510 584 l-502
503 0 1229 c0 1120 -2 1232 -17 1261 -27 52 -85 71 -143 47z"/>
</g>
</svg>
